<?xml version="1.0" encoding="utf-8"?>
<svg version="1.1" xmlns:xlink="http://www.w3.org/1999/xlink" width="50px" height="50px" xmlns="http://www.w3.org/2000/svg">
  <g transform="matrix(1 0 0 1 -359 -269 )">
    <path d="M 48.8125802310655 23.3695652173913  C 49.6041934103552 24.2527173913043  50 25.2830615942029  50 26.460597826087  C 50 27.6154891304348  49.6041934103552 28.6345108695652  48.8125802310655 29.5176630434783  L 46.405648267009 32.0652173913043  C 45.5926401369277 32.9257246376812  44.6191698759093 33.3559782608696  43.4852374839538 33.3559782608696  C 42.3299101412067 33.3559782608696  41.3671373555841 32.9257246376812  40.596919127086 32.0652173913043  L 31 22.1127717391304  L 31 46.0258152173913  C 31.1617458279846 47.2033514492754  30.7605905006419 48.1600996376812  29.9582798459564 48.8960597826087  C 29.1559691912709 49.6320199275362  28.1878476679504 50  27.0539152759949 50  L 22.9460847240051 50  C 21.8121523320496 50  20.8440308087291 49.6320199275362  20.0417201540436 48.8960597826087  C 19.2394094993582 48.1600996376812  18.8382541720154 47.2033514492754  19 46.0258152173913  L 19 22.1127717391304  L 9.40308087291399 32.0652173913043  C 8.63286264441592 32.9257246376812  7.67008985879332 33.3559782608696  6.51476251604621 33.3559782608696  C 5.3594351732991 33.3559782608696  4.39666238767651 32.9257246376812  3.62644415917843 32.0652173913043  L 1.21951219512195 29.5176630434783  C 0.406504065040651 28.6571557971014  0 27.638134057971  0 26.460597826087  C 0 25.2604166666667  0.406504065040651 24.2300724637681  1.21951219512195 23.3695652173913  L 22.1116816431322 1.25679347826087  C 22.8605049208387 0.418931159420288  23.8232777064613 0  25 0  C 26.1553273427471 0  27.1287976037655 0.418931159420288  27.9204107830552 1.25679347826087  L 48.8125802310655 23.3695652173913  Z " fill-rule="nonzero" fill="#a30014" stroke="none" transform="matrix(1 0 0 1 359 269 )" />
  </g>
</svg>