<?xml version="1.0" encoding="utf-8"?>
<svg version="1.1" xmlns:xlink="http://www.w3.org/1999/xlink" width="17px" height="22px" xmlns="http://www.w3.org/2000/svg">
  <g transform="matrix(1 0 0 1 -247 -32 )">
    <path d="M 16.6458333333333 1.57142857142857  L 15.5833333333333 1.57142857142857  C 15.5833333333333 3.70758928571429  15.1904296875 5.59616815476191  14.4046223958333 7.23716517857143  C 13.6188151041667 8.87816220238095  12.6356336805556 10.1324404761905  11.455078125 11  C 12.6356336805556 11.8675595238095  13.6188151041667 13.121837797619  14.4046223958333 14.7628348214286  C 15.1904296875 16.4038318452381  15.5833333333333 18.2924107142857  15.5833333333333 20.4285714285714  L 16.6458333333333 20.4285714285714  C 16.7491319444444 20.4285714285714  16.833984375 20.4654017857143  16.900390625 20.5390625  C 16.966796875 20.6127232142857  17 20.7068452380952  17 20.8214285714286  L 17 21.6071428571429  C 17 21.7217261904762  16.966796875 21.8158482142857  16.900390625 21.8895089285714  C 16.833984375 21.9631696428571  16.7491319444444 22  16.6458333333333 22  L 0.354166666666667 22  C 0.250868055555556 22  0.166015625 21.9631696428571  0.099609375 21.8895089285714  C 0.033203125 21.8158482142857  0 21.7217261904762  0 21.6071428571429  L 0 20.8214285714286  C 0 20.7068452380952  0.033203125 20.6127232142857  0.099609375 20.5390625  C 0.166015625 20.4654017857143  0.250868055555556 20.4285714285714  0.354166666666667 20.4285714285714  L 1.41666666666667 20.4285714285714  C 1.41666666666667 18.2924107142857  1.8095703125 16.4038318452381  2.59537760416667 14.7628348214286  C 3.38118489583333 13.121837797619  4.36436631944444 11.8675595238095  5.544921875 11  C 4.36436631944444 10.1324404761905  3.38118489583333 8.87816220238095  2.59537760416667 7.23716517857143  C 1.8095703125 5.59616815476191  1.41666666666667 3.70758928571429  1.41666666666667 1.57142857142857  L 0.354166666666667 1.57142857142857  C 0.250868055555556 1.57142857142857  0.166015625 1.53459821428571  0.099609375 1.4609375  C 0.033203125 1.38727678571429  0 1.29315476190476  0 1.17857142857143  L 0 0.392857142857144  C 0 0.278273809523807  0.033203125 0.184151785714285  0.099609375 0.110491071428571  C 0.166015625 0.0368303571428561  0.250868055555556 0  0.354166666666667 0  L 16.6458333333333 0  C 16.7491319444444 0  16.833984375 0.0368303571428561  16.900390625 0.110491071428571  C 16.966796875 0.184151785714285  17 0.278273809523807  17 0.392857142857144  L 17 1.17857142857143  C 17 1.29315476190476  16.966796875 1.38727678571429  16.900390625 1.4609375  C 16.833984375 1.53459821428571  16.7491319444444 1.57142857142857  16.6458333333333 1.57142857142857  Z M 9.33561197916667 10.5518973214286  C 9.42046440972222 10.4168526785714  9.53298611111111 10.3206845238095  9.67317708333333 10.2633928571429  C 10.2413194444444 10.0260416666667  10.791015625 9.64750744047619  11.322265625 9.12779017857143  C 11.853515625 8.60807291666667  12.3312717013889 7.98400297619048  12.7555338541667 7.25558035714286  C 13.1797960069444 6.52715773809524  13.5210503472222 5.66778273809524  13.779296875 4.67745535714286  C 14.0375434027778 3.68712797619048  14.1666666666667 2.65178571428571  14.1666666666667 2  L 2.83333333333333 2  C 2.83333333333333 2.65178571428571  2.96245659722222 3.68712797619048  3.220703125 4.67745535714286  C 3.47894965277778 5.66778273809524  3.82020399305556 6.52715773809524  4.24446614583333 7.25558035714286  C 4.66872829861111 7.98400297619048  5.146484375 8.60807291666667  5.677734375 9.12779017857143  C 6.208984375 9.64750744047619  6.75868055555556 10.0260416666667  7.32682291666667 10.2633928571429  C 7.46701388888889 10.3206845238095  7.57953559027778 10.4168526785714  7.66438802083333 10.5518973214286  C 7.74924045138889 10.6869419642857  7.79166666666667 10.8363095238095  7.79166666666667 11  C 7.79166666666667 11.1636904761905  7.74924045138889 11.3130580357143  7.66438802083333 11.4481026785714  C 7.57953559027778 11.5831473214286  7.46701388888889 11.6793154761905  7.32682291666667 11.7366071428571  C 6.31597222222222 12.1540178571429  5.41579861111111 12.9561011904762  4.62630208333333 14.1428571428571  L 12.3736979166667 14.1428571428571  C 11.5842013888889 12.9561011904762  10.6840277777778 12.1540178571429  9.67317708333333 11.7366071428571  C 9.53298611111111 11.6793154761905  9.42046440972222 11.5831473214286  9.33561197916667 11.4481026785714  C 9.25075954861111 11.3130580357143  9.20833333333333 11.1636904761905  9.20833333333333 11  C 9.20833333333333 10.8363095238095  9.25075954861111 10.6869419642857  9.33561197916667 10.5518973214286  Z " fill-rule="nonzero" fill="#a30014" stroke="none" transform="matrix(1 0 0 1 247 32 )" />
  </g>
</svg>