<?xml version="1.0" encoding="utf-8"?>
<svg version="1.1" xmlns:xlink="http://www.w3.org/1999/xlink" width="396px" height="81px" xmlns="http://www.w3.org/2000/svg">
  <defs>
    <filter x="16px" y="300px" width="396px" height="81px" filterUnits="userSpaceOnUse" id="filter17">
      <feOffset dx="0" dy="0" in="SourceAlpha" result="shadowOffsetInner" />
      <feGaussianBlur stdDeviation="0" in="shadowOffsetInner" result="shadowGaussian" />
      <feComposite in2="shadowGaussian" operator="atop" in="SourceAlpha" result="shadowComposite" />
      <feColorMatrix type="matrix" values="0 0 0 0 0  0 0 0 0 0  0 0 0 0 0  0 0 0 0.349019607843137 0  " in="shadowComposite" />
    </filter>
    <g id="widget18">
      <path d="M 16.5 310  A 9.5 9.5 0 0 1 26 300.5 L 402 300.5  A 9.5 9.5 0 0 1 411.5 310 L 411.5 371  A 9.5 9.5 0 0 1 402 380.5 L 26 380.5  A 9.5 9.5 0 0 1 16.5 371 L 16.5 310  Z " fill-rule="nonzero" fill="#02830f" stroke="none" fill-opacity="0.898039215686275" />
      <path d="M 16.5 310  A 9.5 9.5 0 0 1 26 300.5 L 402 300.5  A 9.5 9.5 0 0 1 411.5 310 L 411.5 371  A 9.5 9.5 0 0 1 402 380.5 L 26 380.5  A 9.5 9.5 0 0 1 16.5 371 L 16.5 310  Z " stroke-width="1" stroke="#02830f" fill="none" />
    </g>
  </defs>
  <g transform="matrix(1 0 0 1 -16 -300 )">
    <use xlink:href="#widget18" filter="url(#filter17)" />
    <use xlink:href="#widget18" />
  </g>
</svg>